<?xml version="1.0" encoding="UTF-8"?><svg xmlns="http://www.w3.org/2000/svg" xmlns:xlink="http://www.w3.org/1999/xlink" viewBox="0 0 80 80" preserveAspectRatio="none"><defs><style>.cls-1{fill:url(#linear-gradient);}.cls-2{fill:#262626;}.cls-3{stroke-width:4px;}.cls-3,.cls-4,.cls-5,.cls-6,.cls-7,.cls-8,.cls-9,.cls-10,.cls-11{stroke:#000;stroke-miterlimit:10;}.cls-3,.cls-8{fill:#333;}.cls-4{fill:url(#linear-gradient-2);}.cls-5{fill:url(#linear-gradient-3);}.cls-6{stroke-width:10px;}.cls-6,.cls-11{fill:none;}.cls-7{fill:#006837;}.cls-9{fill:#666;}.cls-10{fill:gray;}</style><linearGradient id="linear-gradient" x1="40" y1=".83" x2="40" y2="59.95" gradientUnits="userSpaceOnUse"><stop offset="0" stop-color="#666"/><stop offset=".5" stop-color="#333"/><stop offset=".5" stop-color="#000"/><stop offset="1" stop-color="#262626"/></linearGradient><linearGradient id="linear-gradient-2" x1="39.75" y1="35.53" x2="39.65" y2="48.71" gradientUnits="userSpaceOnUse"><stop offset="0" stop-color="gray"/><stop offset=".39" stop-color="#7a7a7a"/><stop offset=".86" stop-color="#6b6b6b"/><stop offset="1" stop-color="#666"/></linearGradient><linearGradient id="linear-gradient-3" x1="39.77" y1="52.48" x2="39.84" y2="63.68" gradientUnits="userSpaceOnUse"><stop offset=".02" stop-color="#b3b3b3"/><stop offset="1" stop-color="#999"/></linearGradient></defs><g id="Layer_1"><rect class="cls-1" width="80" height="60"/><path class="cls-2" d="M0,60H80v10c0,5.52-4.48,10-10,10H10c-5.52,0-10-4.48-10-10v-10H0Z"/></g><g id="Layer_2"><g><path class="cls-9" d="M31.97,21.5c-3.76-4.14-6.47-7.35-8.32-9.59,0,0-3.03-3.67-8.3-6.51-.46-.25-1.21-.59-1.83-.28-.56,.29-.97,.9-.89,1.67,.41,3.7,.82,7.41,1.2,11.11,.46,4.45,.91,8.9,1.33,13.35"/><path class="cls-9" d="M47.67,21.51c3.76-4.14,6.48-7.34,8.33-9.58,0,0,3.03-3.66,8.31-6.5,.46-.25,1.21-.59,1.83-.28,.56,.29,.97,.9,.89,1.67-.42,3.7-.82,7.41-1.21,11.11-.47,4.45-.91,8.9-1.34,13.35"/></g><path class="cls-10" d="M39.49,20.48c.5,0,1,0,1.5,0,4.08,.02,8.05,.21,11.9,.53,5.78,.75,10.59,5.74,11.9,8.34,.87,1.74,1.25,3.77,1.25,3.77,.15,.93,.26,2.06,.25,3.33,0,.71-.05,1.37-.12,1.98-.07,.63-.29,1.22-.66,1.72-.27,.37-.54,.75-.81,1.12-5.14,7.14-9.99,14.31-14.57,21.49-1.82,1.41-4.65,3.1-8.32,3.51-.64,.07-1.25,.1-1.83,.09h.08c-.58,.01-1.19,0-1.83-.07-3.67-.36-6.53-2.02-8.36-3.4-4.66-7.11-9.59-14.22-14.81-21.3-.27-.37-.55-.74-.82-1.11-.37-.5-.6-1.09-.68-1.72-.07-.6-.12-1.27-.14-1.98-.03-1.27,.07-2.4,.21-3.34,0,0,.35-2.04,1.21-3.79,1.27-2.61,6.03-7.66,11.81-8.48,3.84-.37,7.81-.6,11.89-.68,.5,0,1-.02,1.5-.02"/><ellipse class="cls-7" cx="25.57" cy="34.95" rx="8.11" ry="7.25" transform="translate(-.96 .73) rotate(-1.6)"/><ellipse class="cls-7" cx="53.96" cy="34.9" rx="7.25" ry="8.11" transform="translate(17.87 88.07) rotate(-88.72)"/><g id="Nose_Bridge"><path class="cls-4" d="M45.89,34.22c-.04,.46-.07,.92-.1,1.39-.37,5.57-.41,10.91-.2,15.95l-11.58,.02c.19-5.05,.14-10.38-.25-15.95-.03-.46-.07-.93-.1-1.39"/></g><path class="cls-5" d="M34.06,51.94c-9.47,1.91-10.17,4.28-10.24,5.07-.29,3.64,10.31,9.63,14.32,6.12,.61-.53,1.37-1.55,1.65-3.65h0c.28,2.1,1.05,3.12,1.65,3.65,4.02,3.51,14.61-2.49,14.32-6.13-.06-.79-.77-3.16-10.24-5.06"/><g id="Whiskers"><path class="cls-11" d="M31.68,56.17c-3.98,1.51-8.33,3.42-12.93,5.84-5.25,2.76-9.83,5.68-13.75,8.47"/><path class="cls-11" d="M33.04,58.8c-3.36,1.73-7.1,3.93-11.03,6.71-4.3,3.05-7.92,6.18-10.89,9.05"/><path class="cls-11" d="M35.22,60.7c-1.94,1.59-4.08,3.57-6.26,5.98-2.64,2.93-4.69,5.8-6.26,8.32"/><path class="cls-11" d="M47.83,55.84c4.03,1.35,8.45,3.08,13.13,5.31,5.35,2.55,10.03,5.27,14.04,7.9"/><path class="cls-11" d="M46.57,58.52c3.42,1.59,7.24,3.63,11.26,6.26,4.41,2.88,8.13,5.85,11.2,8.6"/><path class="cls-11" d="M44.46,60.51c2,1.51,4.21,3.4,6.47,5.72,2.74,2.82,4.89,5.61,6.55,8.06"/></g><line class="cls-11" x1="39.81" y1="58.64" x2="39.81" y2="59.5"/><path id="Nose_Tip" class="cls-8" d="M39.81,58.66c.64-.19,1.42-.61,1.84-1.69,.67-1.71-.14-3.61,.47-4.54,.77-1.17,2.61,1.04,3.3-.2,.27-.49,.3-1.35,.12-1.89-.25-.74-.89-.87-2.55-.97-.85-.05-1.93-.08-3.18-.06-1.25-.02-2.33,.01-3.18,.06-1.67,.09-2.3,.23-2.55,.97-.18,.54-.16,1.4,.12,1.89,.69,1.24,2.53-.97,3.3,.2,.61,.93-.2,2.83,.47,4.54,.42,1.08,1.21,1.5,1.85,1.69"/><path class="cls-6" d="M36.38,30.2c.37-.3,1.61-1.26,3.46-1.27,1.9-.02,3.19,.98,3.55,1.27"/><line class="cls-6" x1="25.94" y1="26.65" x2="54.79" y2="26.37"/><path class="cls-3" d="M45.62,36.73c.64,1.11,1.77,2.72,3.64,4.02,4.09,2.85,11.27,3.89,14.51-.29,2.58-3.33,2.45-9.51-.62-12.01-5.64-4.59-18.98-1.71-19.94-.41-.5,.68-1.23,3.41,2.41,8.69Z"/><path class="cls-3" d="M34.34,36.84c-.62,1.12-1.72,2.76-3.56,4.1-4.03,2.93-11.19,4.12-14.51,0-2.64-3.28-2.63-9.46,.4-12.02,5.55-4.7,18.94-2.1,19.92-.82,.52,.67,1.3,3.38-2.24,8.74Z"/></g></svg>