<?xml version="1.0" encoding="UTF-8"?><svg xmlns="http://www.w3.org/2000/svg" xmlns:xlink="http://www.w3.org/1999/xlink" viewBox="0 0 80 80" preserveAspectRatio="none"><defs><style>.cls-1{fill:url(#linear-gradient);}.cls-2{stroke-width:4px;}.cls-2,.cls-3,.cls-4,.cls-5,.cls-6,.cls-7,.cls-8,.cls-9,.cls-10,.cls-11{stroke:#000;}.cls-2,.cls-5,.cls-6,.cls-7,.cls-8,.cls-9,.cls-10,.cls-11{stroke-miterlimit:10;}.cls-2,.cls-8{fill:#333;}.cls-3{stroke-miterlimit:10;stroke-width:1px;}.cls-3,.cls-4{fill:#006837;}.cls-4{stroke-miterlimit:10;stroke-width:1px;}.cls-5{fill:url(#linear-gradient-2);}.cls-6{fill:url(#linear-gradient-3);}.cls-7{stroke-width:10px;}.cls-7,.cls-11{fill:none;}.cls-9{fill:#666;}.cls-10{fill:gray;}.cls-12{fill:#fff;opacity:.2;}</style><linearGradient id="linear-gradient" x1="40" y1="3.17" x2="40" y2="58.13" gradientUnits="userSpaceOnUse"><stop offset="0" stop-color="#fff" stop-opacity=".3"/><stop offset=".5" stop-color="#fff" stop-opacity=".1"/><stop offset=".51" stop-color="#fff" stop-opacity="0"/><stop offset=".8" stop-color="#fff" stop-opacity="0"/><stop offset="1" stop-color="#fff" stop-opacity=".2"/></linearGradient><linearGradient id="linear-gradient-2" x1="39.77" y1="46.15" x2="39.67" y2="33.91" gradientTransform="translate(0 82) scale(1 -1)" gradientUnits="userSpaceOnUse"><stop offset="0" stop-color="gray"/><stop offset=".39" stop-color="#7a7a7a"/><stop offset=".86" stop-color="#6b6b6b"/><stop offset="1" stop-color="#666"/></linearGradient><linearGradient id="linear-gradient-3" x1="39.79" y1="30.41" x2="39.85" y2="20.01" gradientTransform="translate(0 82) scale(1 -1)" gradientUnits="userSpaceOnUse"><stop offset=".02" stop-color="#b3b3b3"/><stop offset="1" stop-color="#999"/></linearGradient></defs><g id="Glass"><rect class="cls-1" width="80" height="60"/><rect class="cls-12" y="60" width="80" height="20"/></g><g id="Cat"><g id="Face"><g><path class="cls-9" d="M32.55,22.82c-3.49-3.85-6.01-6.82-7.73-8.9,0,0-2.81-3.4-7.71-6.04-.43-.23-1.12-.55-1.7-.26-.52,.27-.9,.83-.83,1.55,.39,3.44,.76,6.88,1.12,10.32,.43,4.13,.84,8.26,1.24,12.4"/><path class="cls-9" d="M47.12,22.83c3.49-3.84,6.01-6.82,7.73-8.9,0,0,2.81-3.4,7.72-6.04,.43-.23,1.12-.55,1.7-.26,.52,.27,.9,.84,.82,1.55-.39,3.44-.76,6.88-1.12,10.32-.43,4.13-.85,8.26-1.25,12.4"/></g><path class="cls-10" d="M39.53,21.87c.46,0,.93,0,1.39,0,3.79,.02,7.48,.19,11.05,.49,5.37,.7,9.84,5.33,11.05,7.74,.81,1.61,1.16,3.5,1.16,3.5,.14,.87,.24,1.91,.23,3.1,0,.66-.05,1.27-.11,1.84-.06,.58-.27,1.14-.61,1.6-.25,.35-.5,.69-.75,1.04-4.77,6.63-9.28,13.29-13.53,19.95-1.69,1.3-4.32,2.88-7.73,3.26-.59,.06-1.16,.09-1.7,.08h.07c-.54,.01-1.11,0-1.7-.06-3.41-.33-6.06-1.88-7.76-3.16-4.32-6.61-8.9-13.21-13.75-19.78-.25-.34-.51-.69-.76-1.03-.34-.46-.56-1.01-.63-1.59-.07-.56-.11-1.17-.13-1.83-.02-1.18,.07-2.23,.2-3.1,0,0,.33-1.89,1.12-3.52,1.18-2.43,5.6-7.11,10.96-7.88,3.57-.34,7.25-.56,11.04-.63,.47,0,.93-.01,1.39-.02"/><ellipse class="cls-4" cx="26.6" cy="35.31" rx="7.53" ry="6.73" transform="translate(-.98 .76) rotate(-1.6)"/><ellipse class="cls-3" cx="52.97" cy="35.26" rx="6.73" ry="7.53" transform="translate(16.53 87.43) rotate(-88.72)"/><g id="Nose_Bridge"><path class="cls-5" d="M45.47,34.63c-.03,.43-.06,.86-.09,1.29-.35,5.17-.38,10.13-.19,14.81l-10.76,.02c.17-4.69,.13-9.64-.24-14.81-.03-.43-.06-.86-.1-1.29"/></g><path class="cls-6" d="M34.49,51.09c-8.79,1.77-9.45,3.98-9.5,4.71-.27,3.38,9.57,8.95,13.3,5.68,.56-.49,1.28-1.44,1.53-3.39h0c.26,1.95,.97,2.9,1.54,3.39,3.73,3.26,13.56-2.31,13.29-5.69-.06-.73-.71-2.93-9.51-4.7"/><g id="Whiskers"><path class="cls-11" d="M32.27,55.02c-3.69,1.4-7.74,3.18-12.01,5.42-4.88,2.57-9.13,5.27-12.77,7.86"/><path class="cls-11" d="M33.54,57.46c-3.12,1.61-6.59,3.65-10.24,6.23-3.99,2.84-7.35,5.73-10.11,8.4"/><path class="cls-11" d="M35.56,59.22c-1.8,1.48-3.79,3.31-5.81,5.56-2.45,2.72-4.35,5.39-5.81,7.73"/><path class="cls-11" d="M47.27,54.71c3.74,1.25,7.85,2.86,12.19,4.93,4.96,2.36,9.31,4.89,13.04,7.33"/><path class="cls-11" d="M46.1,57.2c3.18,1.48,6.72,3.38,10.45,5.81,4.09,2.67,7.55,5.43,10.4,7.98"/><path class="cls-11" d="M44.14,59.04c1.85,1.4,3.91,3.16,6.01,5.32,2.54,2.62,4.54,5.2,6.08,7.48"/></g><line class="cls-11" x1="39.82" y1="57.31" x2="39.82" y2="58.11"/><path id="Nose_Tip" class="cls-8" d="M39.82,57.32c.59-.17,1.32-.57,1.71-1.57,.62-1.59-.13-3.36,.43-4.22,.72-1.09,2.42,.96,3.06-.18,.25-.46,.28-1.25,.11-1.75-.23-.69-.82-.81-2.37-.9-.79-.04-1.79-.08-2.95-.06-1.16-.02-2.16,.01-2.95,.06-1.55,.09-2.14,.21-2.37,.9-.17,.5-.15,1.3,.11,1.75,.64,1.15,2.35-.91,3.06,.18,.57,.86-.18,2.63,.44,4.22,.39,1,1.12,1.39,1.71,1.57"/></g><g id="Sunglasses"><path class="cls-7" d="M36.64,30.9c.34-.28,1.5-1.17,3.21-1.18,1.77-.01,2.96,.91,3.3,1.18"/><line class="cls-7" x1="26.95" y1="27.6" x2="53.74" y2="27.35"/><path class="cls-2" d="M45.22,36.96c.6,1.03,1.65,2.53,3.38,3.74,3.79,2.64,10.47,3.61,13.48-.27,2.4-3.09,2.28-8.83-.58-11.15-5.24-4.26-17.62-1.59-18.51-.38-.47,.63-1.14,3.16,2.24,8.07h0Z"/><path class="cls-2" d="M34.75,37.07c-.58,1.04-1.6,2.56-3.31,3.8-3.74,2.72-10.39,3.82-13.48,0-2.45-3.04-2.44-8.78,.37-11.16,5.15-4.36,17.59-1.95,18.5-.76,.48,.62,1.2,3.14-2.08,8.12Z"/></g></g></svg>